<svg id="visual" viewBox="0 0 100 1000" width="100" height="1000" xmlns="http://www.w3.org/2000/svg" xmlns:xlink="http://www.w3.org/1999/xlink" version="1.1"><path d="M88 0L88.7 9.3C89.3 18.7 90.7 37.3 84.8 55.8C79 74.3 66 92.7 56.8 111.2C47.7 129.7 42.3 148.3 44.2 166.8C46 185.3 55 203.7 60.5 222.2C66 240.7 68 259.3 64.3 277.8C60.7 296.3 51.3 314.7 49.5 333.2C47.7 351.7 53.3 370.3 56.3 388.8C59.3 407.3 59.7 425.7 62.2 444.2C64.7 462.7 69.3 481.3 71.8 500C74.3 518.7 74.7 537.3 73 555.8C71.3 574.3 67.7 592.7 69.5 611.2C71.3 629.7 78.7 648.3 82.8 666.8C87 685.3 88 703.7 83.8 722.2C79.7 740.7 70.3 759.3 66.7 777.8C63 796.3 65 814.7 69.7 833.2C74.3 851.7 81.7 870.3 84.7 888.8C87.7 907.3 86.3 925.7 86.3 944.2C86.3 962.7 87.7 981.3 88.3 990.7L89 1000L0 1000L0 990.7C0 981.3 0 962.7 0 944.2C0 925.7 0 907.3 0 888.8C0 870.3 0 851.7 0 833.2C0 814.7 0 796.3 0 777.8C0 759.3 0 740.7 0 722.2C0 703.7 0 685.3 0 666.8C0 648.3 0 629.7 0 611.2C0 592.7 0 574.3 0 555.8C0 537.3 0 518.7 0 500C0 481.3 0 462.7 0 444.2C0 425.7 0 407.3 0 388.8C0 370.3 0 351.7 0 333.2C0 314.7 0 296.3 0 277.8C0 259.3 0 240.7 0 222.2C0 203.7 0 185.3 0 166.8C0 148.3 0 129.7 0 111.2C0 92.7 0 74.3 0 55.8C0 37.3 0 18.7 0 9.3L0 0Z" fill="#ffffff"></path><path d="M61 0L63 9.3C65 18.7 69 37.3 67.2 55.8C65.3 74.3 57.7 92.7 51.5 111.2C45.3 129.7 40.7 148.3 42 166.8C43.3 185.3 50.7 203.7 51.2 222.2C51.7 240.7 45.3 259.3 43.5 277.8C41.7 296.3 44.3 314.7 45 333.2C45.7 351.7 44.3 370.3 47.8 388.8C51.3 407.3 59.7 425.7 59.3 444.2C59 462.7 50 481.3 44 500C38 518.7 35 537.3 36.2 555.8C37.3 574.3 42.7 592.7 46.3 611.2C50 629.7 52 648.3 51.2 666.8C50.3 685.3 46.7 703.7 44.7 722.2C42.7 740.7 42.3 759.3 44.3 777.8C46.3 796.3 50.7 814.7 50.8 833.2C51 851.7 47 870.3 46.7 888.8C46.3 907.3 49.7 925.7 47.7 944.2C45.7 962.7 38.3 981.3 34.7 990.7L31 1000L0 1000L0 990.7C0 981.3 0 962.7 0 944.2C0 925.7 0 907.3 0 888.8C0 870.3 0 851.7 0 833.2C0 814.7 0 796.3 0 777.8C0 759.3 0 740.7 0 722.2C0 703.7 0 685.3 0 666.8C0 648.3 0 629.7 0 611.2C0 592.7 0 574.3 0 555.8C0 537.3 0 518.7 0 500C0 481.3 0 462.7 0 444.2C0 425.7 0 407.3 0 388.8C0 370.3 0 351.7 0 333.2C0 314.7 0 296.3 0 277.8C0 259.3 0 240.7 0 222.2C0 203.7 0 185.3 0 166.8C0 148.3 0 129.7 0 111.2C0 92.7 0 74.3 0 55.8C0 37.3 0 18.7 0 9.3L0 0Z" fill="#bec0cd"></path><path d="M40 0L39.8 9.3C39.7 18.7 39.3 37.3 38.3 55.8C37.3 74.3 35.7 92.7 38.2 111.2C40.7 129.7 47.3 148.3 51.3 166.8C55.3 185.3 56.7 203.7 55.7 222.2C54.7 240.7 51.3 259.3 47.3 277.8C43.3 296.3 38.7 314.7 35 333.2C31.3 351.7 28.7 370.3 30.2 388.8C31.7 407.3 37.3 425.7 43.3 444.2C49.3 462.7 55.7 481.3 55 500C54.3 518.7 46.7 537.3 44.7 555.8C42.7 574.3 46.3 592.7 48.7 611.2C51 629.7 52 648.3 53.7 666.8C55.3 685.3 57.7 703.7 57.7 722.2C57.7 740.7 55.3 759.3 51.3 777.8C47.3 796.3 41.7 814.7 41 833.2C40.3 851.7 44.7 870.3 44.7 888.8C44.7 907.3 40.3 925.7 39.3 944.2C38.3 962.7 40.7 981.3 41.8 990.7L43 1000L0 1000L0 990.7C0 981.3 0 962.7 0 944.2C0 925.7 0 907.3 0 888.8C0 870.3 0 851.7 0 833.2C0 814.7 0 796.3 0 777.8C0 759.3 0 740.7 0 722.2C0 703.7 0 685.3 0 666.8C0 648.3 0 629.7 0 611.2C0 592.7 0 574.3 0 555.8C0 537.3 0 518.7 0 500C0 481.3 0 462.7 0 444.2C0 425.7 0 407.3 0 388.8C0 370.3 0 351.7 0 333.2C0 314.7 0 296.3 0 277.8C0 259.3 0 240.7 0 222.2C0 203.7 0 185.3 0 166.8C0 148.3 0 129.7 0 111.2C0 92.7 0 74.3 0 55.8C0 37.3 0 18.7 0 9.3L0 0Z" fill="#80859d"></path><path d="M38 0L36.5 9.3C35 18.7 32 37.3 32.2 55.8C32.3 74.3 35.7 92.7 35.2 111.2C34.7 129.7 30.3 148.3 30 166.8C29.7 185.3 33.3 203.7 31.2 222.2C29 240.7 21 259.3 20.7 277.8C20.3 296.3 27.7 314.7 31.7 333.2C35.7 351.7 36.3 370.3 36.8 388.8C37.3 407.3 37.7 425.7 38.3 444.2C39 462.7 40 481.3 36.2 500C32.3 518.7 23.7 537.3 23 555.8C22.3 574.3 29.7 592.7 29.5 611.2C29.3 629.7 21.7 648.3 18 666.8C14.3 685.3 14.7 703.7 18.3 722.2C22 740.7 29 759.3 30.7 777.8C32.3 796.3 28.7 814.7 27.2 833.2C25.7 851.7 26.3 870.3 24.5 888.8C22.7 907.3 18.3 925.7 17 944.2C15.7 962.7 17.3 981.3 18.2 990.7L19 1000L0 1000L0 990.7C0 981.3 0 962.7 0 944.2C0 925.7 0 907.3 0 888.8C0 870.3 0 851.7 0 833.2C0 814.7 0 796.3 0 777.8C0 759.3 0 740.7 0 722.2C0 703.7 0 685.3 0 666.8C0 648.3 0 629.7 0 611.2C0 592.7 0 574.3 0 555.8C0 537.3 0 518.7 0 500C0 481.3 0 462.7 0 444.2C0 425.7 0 407.3 0 388.8C0 370.3 0 351.7 0 333.2C0 314.7 0 296.3 0 277.8C0 259.3 0 240.7 0 222.2C0 203.7 0 185.3 0 166.8C0 148.3 0 129.7 0 111.2C0 92.7 0 74.3 0 55.8C0 37.3 0 18.7 0 9.3L0 0Z" fill="#444e6f"></path><path d="M17 0L15.5 9.3C14 18.7 11 37.3 11.5 55.8C12 74.3 16 92.7 18.8 111.2C21.7 129.7 23.3 148.3 21.7 166.8C20 185.3 15 203.7 15.8 222.2C16.7 240.7 23.3 259.3 25.7 277.8C28 296.3 26 314.7 23 333.2C20 351.7 16 370.3 14.8 388.8C13.7 407.3 15.3 425.7 16.5 444.2C17.7 462.7 18.3 481.3 18.2 500C18 518.7 17 537.3 15.8 555.8C14.7 574.3 13.3 592.7 15.5 611.2C17.7 629.7 23.3 648.3 24.3 666.8C25.3 685.3 21.7 703.7 21 722.2C20.3 740.7 22.7 759.3 24 777.8C25.3 796.3 25.7 814.7 23.2 833.2C20.7 851.7 15.3 870.3 15.8 888.8C16.3 907.3 22.7 925.7 25 944.2C27.3 962.7 25.7 981.3 24.8 990.7L24 1000L0 1000L0 990.7C0 981.3 0 962.7 0 944.2C0 925.7 0 907.3 0 888.8C0 870.3 0 851.7 0 833.2C0 814.7 0 796.3 0 777.8C0 759.3 0 740.7 0 722.2C0 703.7 0 685.3 0 666.8C0 648.3 0 629.7 0 611.2C0 592.7 0 574.3 0 555.8C0 537.3 0 518.7 0 500C0 481.3 0 462.7 0 444.2C0 425.7 0 407.3 0 388.8C0 370.3 0 351.7 0 333.2C0 314.7 0 296.3 0 277.8C0 259.3 0 240.7 0 222.2C0 203.7 0 185.3 0 166.8C0 148.3 0 129.7 0 111.2C0 92.7 0 74.3 0 55.8C0 37.3 0 18.7 0 9.3L0 0Z" fill="#001e44"></path></svg>