<svg id="visual" viewBox="0 0 1080 100" width="1080" height="100" xmlns="http://www.w3.org/2000/svg" xmlns:xlink="http://www.w3.org/1999/xlink" version="1.1"><path d="M0 76L90 76L90 58L180 58L180 82L270 82L270 88L360 88L360 90L450 90L450 66L540 66L540 77L630 77L630 58L720 58L720 85L810 85L810 61L900 61L900 80L990 80L990 89L1080 89L1080 69L1080 0L1080 0L990 0L990 0L900 0L900 0L810 0L810 0L720 0L720 0L630 0L630 0L540 0L540 0L450 0L450 0L360 0L360 0L270 0L270 0L180 0L180 0L90 0L90 0L0 0Z" fill="#1e407c"></path><path d="M0 62L90 62L90 40L180 40L180 46L270 46L270 69L360 69L360 45L450 45L450 42L540 42L540 55L630 55L630 51L720 51L720 69L810 69L810 48L900 48L900 41L990 41L990 69L1080 69L1080 59L1080 0L1080 0L990 0L990 0L900 0L900 0L810 0L810 0L720 0L720 0L630 0L630 0L540 0L540 0L450 0L450 0L360 0L360 0L270 0L270 0L180 0L180 0L90 0L90 0L0 0Z" fill="#133569"></path><path d="M0 40L90 40L90 43L180 43L180 38L270 38L270 24L360 24L360 50L450 50L450 49L540 49L540 41L630 41L630 44L720 44L720 40L810 40L810 42L900 42L900 44L990 44L990 40L1080 40L1080 28L1080 0L1080 0L990 0L990 0L900 0L900 0L810 0L810 0L720 0L720 0L630 0L630 0L540 0L540 0L450 0L450 0L360 0L360 0L270 0L270 0L180 0L180 0L90 0L90 0L0 0Z" fill="#082956"></path><path d="M0 22L90 22L90 25L180 25L180 32L270 32L270 22L360 22L360 12L450 12L450 29L540 29L540 6L630 6L630 23L720 23L720 18L810 18L810 14L900 14L900 21L990 21L990 5L1080 5L1080 7L1080 0L1080 0L990 0L990 0L900 0L900 0L810 0L810 0L720 0L720 0L630 0L630 0L540 0L540 0L450 0L450 0L360 0L360 0L270 0L270 0L180 0L180 0L90 0L90 0L0 0Z" fill="#001e44"></path></svg>