<svg id="visual" viewBox="0 0 600 20" width="600" height="20" xmlns="http://www.w3.org/2000/svg" xmlns:xlink="http://www.w3.org/1999/xlink" version="1.1"><path d="M0 15L50 15L50 11L100 11L100 10L150 10L150 11L200 11L200 12L250 12L250 13L300 13L300 14L350 14L350 13L400 13L400 13L450 13L450 16L500 16L500 17L550 17L550 16L600 16L600 15L600 0L600 0L550 0L550 0L500 0L500 0L450 0L450 0L400 0L400 0L350 0L350 0L300 0L300 0L250 0L250 0L200 0L200 0L150 0L150 0L100 0L100 0L50 0L50 0L0 0Z" fill="#1e407c"></path><path d="M0 7L50 7L50 9L100 9L100 10L150 10L150 11L200 11L200 12L250 12L250 11L300 11L300 10L350 10L350 12L400 12L400 12L450 12L450 8L500 8L500 10L550 10L550 11L600 11L600 11L600 0L600 0L550 0L550 0L500 0L500 0L450 0L450 0L400 0L400 0L350 0L350 0L300 0L300 0L250 0L250 0L200 0L200 0L150 0L150 0L100 0L100 0L50 0L50 0L0 0Z" fill="#133569"></path><path d="M0 7L50 7L50 5L100 5L100 5L150 5L150 8L200 8L200 5L250 5L250 8L300 8L300 8L350 8L350 4L400 4L400 7L450 7L450 9L500 9L500 4L550 4L550 7L600 7L600 5L600 0L600 0L550 0L550 0L500 0L500 0L450 0L450 0L400 0L400 0L350 0L350 0L300 0L300 0L250 0L250 0L200 0L200 0L150 0L150 0L100 0L100 0L50 0L50 0L0 0Z" fill="#082956"></path><path d="M0 4L50 4L50 3L100 3L100 2L150 2L150 4L200 4L200 5L250 5L250 3L300 3L300 5L350 5L350 5L400 5L400 4L450 4L450 6L500 6L500 5L550 5L550 6L600 6L600 4L600 0L600 0L550 0L550 0L500 0L500 0L450 0L450 0L400 0L400 0L350 0L350 0L300 0L300 0L250 0L250 0L200 0L200 0L150 0L150 0L100 0L100 0L50 0L50 0L0 0Z" fill="#001e44"></path></svg>