<svg id="visual" viewBox="0 0 600 20" width="600" height="20" xmlns="http://www.w3.org/2000/svg" xmlns:xlink="http://www.w3.org/1999/xlink" version="1.1"><path d="M0 4L50 4L50 2L100 2L100 2L150 2L150 3L200 3L200 8L250 8L250 7L300 7L300 7L350 7L350 3L400 3L400 3L450 3L450 5L500 5L500 2L550 2L550 3L600 3L600 4L600 21L600 21L550 21L550 21L500 21L500 21L450 21L450 21L400 21L400 21L350 21L350 21L300 21L300 21L250 21L250 21L200 21L200 21L150 21L150 21L100 21L100 21L50 21L50 21L0 21Z" fill="#1e407c"></path><path d="M0 11L50 11L50 9L100 9L100 10L150 10L150 8L200 8L200 6L250 6L250 7L300 7L300 5L350 5L350 7L400 7L400 5L450 5L450 11L500 11L500 5L550 5L550 8L600 8L600 5L600 21L600 21L550 21L550 21L500 21L500 21L450 21L450 21L400 21L400 21L350 21L350 21L300 21L300 21L250 21L250 21L200 21L200 21L150 21L150 21L100 21L100 21L50 21L50 21L0 21Z" fill="#133569"></path><path d="M0 9L50 9L50 13L100 13L100 10L150 10L150 10L200 10L200 9L250 9L250 14L300 14L300 11L350 11L350 14L400 14L400 12L450 12L450 13L500 13L500 12L550 12L550 12L600 12L600 12L600 21L600 21L550 21L550 21L500 21L500 21L450 21L450 21L400 21L400 21L350 21L350 21L300 21L300 21L250 21L250 21L200 21L200 21L150 21L150 21L100 21L100 21L50 21L50 21L0 21Z" fill="#082956"></path><path d="M0 12L50 12L50 17L100 17L100 16L150 16L150 18L200 18L200 15L250 15L250 14L300 14L300 17L350 17L350 13L400 13L400 17L450 17L450 16L500 16L500 16L550 16L550 17L600 17L600 16L600 21L600 21L550 21L550 21L500 21L500 21L450 21L450 21L400 21L400 21L350 21L350 21L300 21L300 21L250 21L250 21L200 21L200 21L150 21L150 21L100 21L100 21L50 21L50 21L0 21Z" fill="#001e44"></path></svg>