<svg id="visual" viewBox="0 0 1920 1080" width="1920" height="1080" xmlns="http://www.w3.org/2000/svg" xmlns:xlink="http://www.w3.org/1999/xlink" version="1.1"><g stroke-width="1" stroke-linejoin="bevel"><path d="M928.2 485L786.5 469L835.5 606Z" fill="#070607" stroke="#070607"></path><path d="M835.5 606L992.8 616L928.2 485Z" fill="#050405" stroke="#050405"></path><path d="M1075.8 492L885.2 344L928.2 485Z" fill="#090909" stroke="#090909"></path><path d="M928.2 485L885.2 344L786.5 469Z" fill="#050405" stroke="#050405"></path><path d="M835.5 606L915.2 720L992.8 616Z" fill="#040304" stroke="#040304"></path><path d="M915.2 720L1042.8 624L992.8 616Z" fill="#060506" stroke="#060506"></path><path d="M992.8 616L1075.8 492L928.2 485Z" fill="#070707" stroke="#070707"></path><path d="M1042.8 624L1075.8 492L992.8 616Z" fill="#070707" stroke="#070707"></path><path d="M835.5 606L864.2 756L915.2 720Z" fill="#020102" stroke="#020102"></path><path d="M769.5 758L864.2 756L835.5 606Z" fill="#090909" stroke="#090909"></path><path d="M739.5 750L769.5 758L835.5 606Z" fill="#070607" stroke="#070607"></path><path d="M602.8 658L739.5 750L835.5 606Z" fill="#090909" stroke="#090909"></path><path d="M505.8 463L602.8 658L786.5 469Z" fill="#070607" stroke="#070607"></path><path d="M786.5 469L602.8 658L835.5 606Z" fill="#030203" stroke="#030203"></path><path d="M1075.8 492L957.2 255L885.2 344Z" fill="#020102" stroke="#020102"></path><path d="M885.2 344L678.8 279L786.5 469Z" fill="#000000" stroke="#000000"></path><path d="M796.5 207L678.8 279L885.2 344Z" fill="#070707" stroke="#070707"></path><path d="M1168.5 598L1157.5 480L1075.8 492Z" fill="#000000" stroke="#000000"></path><path d="M1075.8 492L1084.8 208L957.2 255Z" fill="#060506" stroke="#060506"></path><path d="M602.8 658L661.8 769L739.5 750Z" fill="#030203" stroke="#030203"></path><path d="M739.5 750L681.8 934L769.5 758Z" fill="#000000" stroke="#000000"></path><path d="M942.8 906L915.2 720L864.2 756Z" fill="#050405" stroke="#050405"></path><path d="M957.2 255L796.5 207L885.2 344Z" fill="#020102" stroke="#020102"></path><path d="M1148.5 893L1168.5 598L1042.8 624Z" fill="#070607" stroke="#070607"></path><path d="M1042.8 624L1168.5 598L1075.8 492Z" fill="#020102" stroke="#020102"></path><path d="M1023.8 865L1042.8 624L915.2 720Z" fill="#090909" stroke="#090909"></path><path d="M1168.5 598L1187.5 486L1157.5 480Z" fill="#000000" stroke="#000000"></path><path d="M1157.5 480L1084.8 208L1075.8 492Z" fill="#090909" stroke="#090909"></path><path d="M678.8 279L505.8 463L786.5 469Z" fill="#030203" stroke="#030203"></path><path d="M505.8 463L502.8 571L602.8 658Z" fill="#030203" stroke="#030203"></path><path d="M602.8 658L529.1 679L661.8 769Z" fill="#020102" stroke="#020102"></path><path d="M502.8 571L529.1 679L602.8 658Z" fill="#080808" stroke="#080808"></path><path d="M942.8 906L864.2 756L769.5 758Z" fill="#060506" stroke="#060506"></path><path d="M942.8 906L1023.8 865L915.2 720Z" fill="#030203" stroke="#030203"></path><path d="M1251.5 273L1084.8 208L1157.5 480Z" fill="#070707" stroke="#070707"></path><path d="M833.5 80L821.2 82L796.5 207Z" fill="#090909" stroke="#090909"></path><path d="M681.8 934L942.8 906L769.5 758Z" fill="#090909" stroke="#090909"></path><path d="M833.5 80L796.5 207L957.2 255Z" fill="#090909" stroke="#090909"></path><path d="M796.5 207L667.8 0L678.8 279Z" fill="#060506" stroke="#060506"></path><path d="M415.1 386L400.1 496L505.8 463Z" fill="#050405" stroke="#050405"></path><path d="M942.8 0L833.5 80L957.2 255Z" fill="#060506" stroke="#060506"></path><path d="M491.1 855L681.8 934L661.8 769Z" fill="#000000" stroke="#000000"></path><path d="M661.8 769L681.8 934L739.5 750Z" fill="#050405" stroke="#050405"></path><path d="M415.1 386L505.8 463L508.1 194Z" fill="#060506" stroke="#060506"></path><path d="M505.8 463L400.1 496L502.8 571Z" fill="#020102" stroke="#020102"></path><path d="M502.8 571L376.1 763L529.1 679Z" fill="#060506" stroke="#060506"></path><path d="M529.1 679L491.1 855L661.8 769Z" fill="#060506" stroke="#060506"></path><path d="M508.1 194L505.8 463L678.8 279Z" fill="#060506" stroke="#060506"></path><path d="M1168.5 598L1314.2 447L1187.5 486Z" fill="#070607" stroke="#070607"></path><path d="M1187.5 486L1251.5 273L1157.5 480Z" fill="#090909" stroke="#090909"></path><path d="M1396.2 705L1314.2 447L1168.5 598Z" fill="#000000" stroke="#000000"></path><path d="M1329.2 373L1251.5 273L1187.5 486Z" fill="#080808" stroke="#080808"></path><path d="M1084.8 208L1106.5 108L957.2 255Z" fill="#000000" stroke="#000000"></path><path d="M1128.5 913L1148.5 893L1023.8 865Z" fill="#070607" stroke="#070607"></path><path d="M1023.8 865L1148.5 893L1042.8 624Z" fill="#040304" stroke="#040304"></path><path d="M1128.5 913L1023.8 865L974.2 988Z" fill="#030203" stroke="#030203"></path><path d="M561.8 47L508.1 194L678.8 279Z" fill="#020102" stroke="#020102"></path><path d="M974.2 988L1023.8 865L942.8 906Z" fill="#040304" stroke="#040304"></path><path d="M812.5 1080L974.2 988L942.8 906Z" fill="#070707" stroke="#070707"></path><path d="M1251.5 273L1106.5 108L1084.8 208Z" fill="#020102" stroke="#020102"></path><path d="M376.1 763L491.1 855L529.1 679Z" fill="#090909" stroke="#090909"></path><path d="M1329.2 373L1272.2 259L1251.5 273Z" fill="#070707" stroke="#070707"></path><path d="M1251.5 273L1272.2 259L1106.5 108Z" fill="#020102" stroke="#020102"></path><path d="M1314.2 447L1329.2 373L1187.5 486Z" fill="#050405" stroke="#050405"></path><path d="M942.8 0L888.2 0L833.5 80Z" fill="#020102" stroke="#020102"></path><path d="M833.5 80L888.2 0L821.2 82Z" fill="#030203" stroke="#030203"></path><path d="M821.2 82L729.5 0L796.5 207Z" fill="#020102" stroke="#020102"></path><path d="M1312.2 936L1310.2 781L1148.5 893Z" fill="#040304" stroke="#040304"></path><path d="M1148.5 893L1310.2 781L1168.5 598Z" fill="#040304" stroke="#040304"></path><path d="M1314.2 447L1431.9 346L1329.2 373Z" fill="#080808" stroke="#080808"></path><path d="M1106.5 108L1077.8 46L957.2 255Z" fill="#020102" stroke="#020102"></path><path d="M1237.5 0L1077.8 46L1106.5 108Z" fill="#040304" stroke="#040304"></path><path d="M1077.8 46L942.8 0L957.2 255Z" fill="#050405" stroke="#050405"></path><path d="M255.4 585L376.1 763L502.8 571Z" fill="#070707" stroke="#070707"></path><path d="M415.1 386L336.4 374L400.1 496Z" fill="#020102" stroke="#020102"></path><path d="M400.1 496L255.4 585L502.8 571Z" fill="#070607" stroke="#070607"></path><path d="M371.1 242L336.4 374L415.1 386Z" fill="#020102" stroke="#020102"></path><path d="M888.2 0L729.5 0L821.2 82Z" fill="#000000" stroke="#000000"></path><path d="M491.1 855L650.5 1039L681.8 934Z" fill="#090909" stroke="#090909"></path><path d="M681.8 934L812.5 1080L942.8 906Z" fill="#070707" stroke="#070707"></path><path d="M540.8 1080L650.5 1039L491.1 855Z" fill="#030203" stroke="#030203"></path><path d="M729.5 0L667.8 0L796.5 207Z" fill="#020102" stroke="#020102"></path><path d="M508.1 194L371.1 242L415.1 386Z" fill="#020102" stroke="#020102"></path><path d="M366.4 0L371.1 242L508.1 194Z" fill="#060506" stroke="#060506"></path><path d="M667.8 0L561.8 47L678.8 279Z" fill="#020102" stroke="#020102"></path><path d="M263.4 191L370.4 242L366.4 0Z" fill="#000000" stroke="#000000"></path><path d="M371.1 242L370.4 242L336.4 374Z" fill="#070607" stroke="#070607"></path><path d="M650.5 1039L812.5 1080L681.8 934Z" fill="#040304" stroke="#040304"></path><path d="M974.2 988L1025.8 1080L1128.5 913Z" fill="#090909" stroke="#090909"></path><path d="M812.5 1080L927.2 1080L974.2 988Z" fill="#030203" stroke="#030203"></path><path d="M1128.5 913L1312.2 936L1148.5 893Z" fill="#040304" stroke="#040304"></path><path d="M1310.2 781L1396.2 705L1168.5 598Z" fill="#050405" stroke="#050405"></path><path d="M927.2 1080L1025.8 1080L974.2 988Z" fill="#020102" stroke="#020102"></path><path d="M1310.2 781L1480.9 849L1396.2 705Z" fill="#080808" stroke="#080808"></path><path d="M240.4 585L255.4 585L177.7 518Z" fill="#080808" stroke="#080808"></path><path d="M336.4 374L255.4 585L400.1 496Z" fill="#080808" stroke="#080808"></path><path d="M1503.9 469L1431.9 346L1314.2 447Z" fill="#070607" stroke="#070607"></path><path d="M1329.2 373L1431.9 346L1272.2 259Z" fill="#040304" stroke="#040304"></path><path d="M1272.2 259L1237.5 0L1106.5 108Z" fill="#020102" stroke="#020102"></path><path d="M561.8 47L366.4 0L508.1 194Z" fill="#070607" stroke="#070607"></path><path d="M667.8 0L533.1 0L561.8 47Z" fill="#060506" stroke="#060506"></path><path d="M219.7 385L255.4 585L336.4 374Z" fill="#070607" stroke="#070607"></path><path d="M255.4 585L228.4 714L376.1 763Z" fill="#070707" stroke="#070707"></path><path d="M1272.2 1080L1312.2 936L1128.5 913Z" fill="#020102" stroke="#020102"></path><path d="M1025.8 1080L1125.5 1080L1128.5 913Z" fill="#030203" stroke="#030203"></path><path d="M309.4 955L491.1 855L376.1 763Z" fill="#090909" stroke="#090909"></path><path d="M435.1 1080L540.8 1080L491.1 855Z" fill="#040304" stroke="#040304"></path><path d="M650.5 1039L540.8 1080L812.5 1080Z" fill="#030203" stroke="#030203"></path><path d="M263.4 191L336.4 374L370.4 242Z" fill="#020102" stroke="#020102"></path><path d="M263.4 191L219.7 385L336.4 374Z" fill="#060506" stroke="#060506"></path><path d="M1428.2 166L1237.5 0L1272.2 259Z" fill="#020102" stroke="#020102"></path><path d="M1077.8 46L1237.5 0L942.8 0Z" fill="#020102" stroke="#020102"></path><path d="M202.7 667L255.4 585L240.4 585Z" fill="#000000" stroke="#000000"></path><path d="M202.7 667L228.4 714L255.4 585Z" fill="#020102" stroke="#020102"></path><path d="M1396.2 705L1503.9 469L1314.2 447Z" fill="#070707" stroke="#070707"></path><path d="M1431.9 346L1428.2 166L1272.2 259Z" fill="#020102" stroke="#020102"></path><path d="M1554.9 624L1503.9 469L1396.2 705Z" fill="#070607" stroke="#070607"></path><path d="M1503.9 469L1485.9 351L1431.9 346Z" fill="#020102" stroke="#020102"></path><path d="M177.7 518L202.7 667L240.4 585Z" fill="#070707" stroke="#070707"></path><path d="M219.7 385L177.7 518L255.4 585Z" fill="#080808" stroke="#080808"></path><path d="M366.4 0L370.4 242L371.1 242Z" fill="#020102" stroke="#020102"></path><path d="M219.7 385L159.7 351L177.7 518Z" fill="#070607" stroke="#070607"></path><path d="M1485.9 351L1428.2 166L1431.9 346Z" fill="#040304" stroke="#040304"></path><path d="M176.7 853L309.4 955L376.1 763Z" fill="#070607" stroke="#070607"></path><path d="M176.7 853L376.1 763L228.4 714Z" fill="#040304" stroke="#040304"></path><path d="M309.4 955L435.1 1080L491.1 855Z" fill="#070707" stroke="#070707"></path><path d="M1125.5 1080L1272.2 1080L1128.5 913Z" fill="#050405" stroke="#050405"></path><path d="M1312.2 936L1480.9 849L1310.2 781Z" fill="#080808" stroke="#080808"></path><path d="M1552.9 888L1480.9 849L1521.9 1080Z" fill="#020102" stroke="#020102"></path><path d="M1549.6 821L1554.9 624L1396.2 705Z" fill="#050405" stroke="#050405"></path><path d="M1503.9 469L1567.6 453L1485.9 351Z" fill="#080808" stroke="#080808"></path><path d="M263.4 191L159.7 351L219.7 385Z" fill="#040304" stroke="#040304"></path><path d="M533.1 0L366.4 0L561.8 47Z" fill="#020102" stroke="#020102"></path><path d="M263.4 191L86.7 134L159.7 351Z" fill="#020102" stroke="#020102"></path><path d="M1554.9 624L1567.6 453L1503.9 469Z" fill="#070607" stroke="#070607"></path><path d="M1485.9 351L1584.6 305L1428.2 166Z" fill="#000000" stroke="#000000"></path><path d="M309.4 955L394.4 1080L435.1 1080Z" fill="#050405" stroke="#050405"></path><path d="M105.7 876L176.7 853L0 688Z" fill="#070607" stroke="#070607"></path><path d="M202.7 667L176.7 853L228.4 714Z" fill="#040304" stroke="#040304"></path><path d="M309.4 955L156.7 1080L394.4 1080Z" fill="#080808" stroke="#080808"></path><path d="M176.7 853L202.7 667L0 688Z" fill="#050405" stroke="#050405"></path><path d="M1396.2 0L1395.9 0L1428.2 166Z" fill="#060506" stroke="#060506"></path><path d="M1428.2 166L1395.9 0L1237.5 0Z" fill="#040304" stroke="#040304"></path><path d="M1497.9 48L1396.2 0L1428.2 166Z" fill="#080808" stroke="#080808"></path><path d="M1480.9 849L1549.6 821L1396.2 705Z" fill="#040304" stroke="#040304"></path><path d="M1554.9 624L1648.6 555L1567.6 453Z" fill="#090909" stroke="#090909"></path><path d="M1552.9 888L1549.6 821L1480.9 849Z" fill="#050405" stroke="#050405"></path><path d="M1694.3 359L1584.6 305L1567.6 453Z" fill="#060506" stroke="#060506"></path><path d="M1567.6 453L1584.6 305L1485.9 351Z" fill="#090909" stroke="#090909"></path><path d="M1521.9 1080L1480.9 849L1312.2 936Z" fill="#070707" stroke="#070707"></path><path d="M1681.6 754L1648.6 555L1554.9 624Z" fill="#040304" stroke="#040304"></path><path d="M1681.6 754L1554.9 624L1549.6 821Z" fill="#000000" stroke="#000000"></path><path d="M1598.6 45L1497.9 48L1428.2 166Z" fill="#040304" stroke="#040304"></path><path d="M0 620L202.7 667L177.7 518Z" fill="#050405" stroke="#050405"></path><path d="M176.7 853L156.7 1080L309.4 955Z" fill="#030203" stroke="#030203"></path><path d="M1521.9 1080L1597.6 903L1552.9 888Z" fill="#080808" stroke="#080808"></path><path d="M1552.9 888L1597.6 903L1549.6 821Z" fill="#070607" stroke="#070607"></path><path d="M366.4 0L190.7 0L263.4 191Z" fill="#070707" stroke="#070707"></path><path d="M0 364L0 620L177.7 518Z" fill="#020102" stroke="#020102"></path><path d="M0 364L177.7 518L159.7 351Z" fill="#090909" stroke="#090909"></path><path d="M1712.3 502L1694.3 359L1567.6 453Z" fill="#090909" stroke="#090909"></path><path d="M1584.6 305L1598.6 45L1428.2 166Z" fill="#030203" stroke="#030203"></path><path d="M1712.3 502L1567.6 453L1648.6 555Z" fill="#030203" stroke="#030203"></path><path d="M190.7 0L86.7 134L263.4 191Z" fill="#080808" stroke="#080808"></path><path d="M1830.3 679L1712.3 502L1648.6 555Z" fill="#070607" stroke="#070607"></path><path d="M1675.3 885L1681.6 754L1549.6 821Z" fill="#070707" stroke="#070707"></path><path d="M0 279L0 364L159.7 351Z" fill="#020102" stroke="#020102"></path><path d="M0 620L0 688L202.7 667Z" fill="#020102" stroke="#020102"></path><path d="M1272.2 1080L1521.9 1080L1312.2 936Z" fill="#050405" stroke="#050405"></path><path d="M1597.6 903L1675.3 885L1549.6 821Z" fill="#060506" stroke="#060506"></path><path d="M1729.3 221L1598.6 45L1584.6 305Z" fill="#050405" stroke="#050405"></path><path d="M1497.9 48L1639.6 0L1396.2 0Z" fill="#000000" stroke="#000000"></path><path d="M86.7 134L0 279L159.7 351Z" fill="#040304" stroke="#040304"></path><path d="M0 944L156.7 1080L105.7 876Z" fill="#040304" stroke="#040304"></path><path d="M105.7 876L156.7 1080L176.7 853Z" fill="#090909" stroke="#090909"></path><path d="M1684.3 1080L1675.3 885L1597.6 903Z" fill="#060506" stroke="#060506"></path><path d="M1830.3 679L1763.3 460L1712.3 502Z" fill="#070607" stroke="#070607"></path><path d="M0 688L0 834L105.7 876Z" fill="#070607" stroke="#070607"></path><path d="M86.7 134L0 208L0 279Z" fill="#060506" stroke="#060506"></path><path d="M0 0L0 208L86.7 134Z" fill="#080808" stroke="#080808"></path><path d="M1712.3 502L1763.3 460L1694.3 359Z" fill="#040304" stroke="#040304"></path><path d="M1694.3 359L1729.3 221L1584.6 305Z" fill="#000000" stroke="#000000"></path><path d="M1830.3 679L1648.6 555L1681.6 754Z" fill="#090909" stroke="#090909"></path><path d="M1920 302L1729.3 221L1694.3 359Z" fill="#020102" stroke="#020102"></path><path d="M1729.3 221L1639.6 0L1598.6 45Z" fill="#050405" stroke="#050405"></path><path d="M1598.6 45L1639.6 0L1497.9 48Z" fill="#070607" stroke="#070607"></path><path d="M0 834L0 944L105.7 876Z" fill="#090909" stroke="#090909"></path><path d="M1814.3 844L1830.3 679L1681.6 754Z" fill="#060506" stroke="#060506"></path><path d="M1763.3 460L1920 302L1694.3 359Z" fill="#080808" stroke="#080808"></path><path d="M190.7 0L0 0L86.7 134Z" fill="#040304" stroke="#040304"></path><path d="M1521.9 1080L1684.3 1080L1597.6 903Z" fill="#020102" stroke="#020102"></path><path d="M1675.3 885L1814.3 844L1681.6 754Z" fill="#040304" stroke="#040304"></path><path d="M1705.6 1080L1814.3 844L1675.3 885Z" fill="#030203" stroke="#030203"></path><path d="M0 944L0 1080L156.7 1080Z" fill="#080808" stroke="#080808"></path><path d="M1684.3 1080L1705.6 1080L1675.3 885Z" fill="#070607" stroke="#070607"></path><path d="M1920 600L1920 478L1763.3 460Z" fill="#020102" stroke="#020102"></path><path d="M1729.3 221L1832.3 0L1639.6 0Z" fill="#050405" stroke="#050405"></path><path d="M1920 600L1763.3 460L1830.3 679Z" fill="#060506" stroke="#060506"></path><path d="M1920 741L1920 600L1830.3 679Z" fill="#090909" stroke="#090909"></path><path d="M1920 748L1830.3 679L1814.3 844Z" fill="#090909" stroke="#090909"></path><path d="M1920 748L1920 741L1830.3 679Z" fill="#000000" stroke="#000000"></path><path d="M1920 478L1920 302L1763.3 460Z" fill="#000000" stroke="#000000"></path><path d="M1920 911L1920 748L1814.3 844Z" fill="#000000" stroke="#000000"></path><path d="M1920 203L1832.3 0L1729.3 221Z" fill="#040304" stroke="#040304"></path><path d="M1920 302L1920 203L1729.3 221Z" fill="#020102" stroke="#020102"></path><path d="M1705.6 1080L1920 911L1814.3 844Z" fill="#020102" stroke="#020102"></path><path d="M1920 203L1920 0L1832.3 0Z" fill="#060506" stroke="#060506"></path><path d="M1705.6 1080L1920 1080L1920 911Z" fill="#050405" stroke="#050405"></path></g></svg>